<svg xmlns="http://www.w3.org/2000/svg" fill="none" viewBox="38.912 71.68 437.248 367.616" style="max-height: 500px" width="437.248" height="367.616">
<path fill="white" d="M374.564 327.98C373.255 333.018 371.55 337.943 369.465 342.712C367.576 347.21 368.475 348.741 373.287 348.81C380.471 348.905 387.656 348.613 394.81 347.937C402.452 347.221 410.217 347.779 417.924 347.763C421.245 347.763 424.571 347.735 427.781 346.698C432.539 345.17 434.231 338.519 430.671 334.935C429.707 333.967 429.904 333.514 430.484 332.531C442.614 311.923 454.003 290.911 462.327 268.457C467.484 254.544 471.093 240.19 471.503 225.149C471.678 218.678 472.178 212.238 471.391 205.793C469.001 186.297 461.087 170.464 442.757 160.996C436.903 157.978 431.048 156.876 424.662 156.908C423.274 156.891 421.898 157.158 420.616 157.691C419.335 158.225 418.176 159.014 417.211 160.011C416.338 160.889 415.646 162.087 414.305 162.321C409.627 163.13 408.168 166.531 407.658 170.608C407.526 172.137 406.852 173.57 405.757 174.647C395.581 184.371 386.597 195.196 377.364 205.761C376.134 207.166 374.782 208.464 372.957 210.37C373.792 204.297 374.436 199.033 375.288 193.802C375.586 191.965 376.885 190.736 378.635 189.863C382.01 188.182 384.814 185.856 385.991 182.061C387.289 177.888 385.522 174.796 381.307 173.662C379.551 173.194 377.757 173.205 375.863 173.045C376.581 170.315 377.188 167.654 377.991 165.062C380.573 156.669 378.194 149.564 372.004 143.81C365.797 137.923 358.368 133.478 350.247 130.792C346.521 129.584 343.227 130.313 340.96 133.597C331.912 146.679 323.535 160.155 318.287 175.259C314.519 186.111 316.44 191.545 325.264 198.868C327.549 200.885 330.093 202.589 332.827 203.935C334.179 204.558 334.105 205.165 333.359 206.117C333.306 206.187 333.253 206.261 333.205 206.335C329.847 211.961 328.554 212.504 322.295 210.657C316.036 208.81 310.383 205.771 304.62 202.887C303.257 202.205 301.958 201.407 300.431 201.093C300.126 201.061 299.832 200.961 299.572 200.799C299.311 200.638 299.089 200.42 298.925 200.162C292.144 189.273 292.645 176.105 299.702 166.334C300.394 165.376 300.926 165.03 302.294 165.493C306.605 166.946 310.809 164.088 311.341 159.521C311.356 159.142 311.468 158.773 311.666 158.449C311.865 158.126 312.143 157.859 312.475 157.675C316.685 154.838 316.403 150.016 311.9 147.61C310.905 147.078 310.107 146.573 309.729 145.439C309.565 144.912 309.235 144.452 308.788 144.129C308.341 143.805 307.801 143.635 307.249 143.645C304.396 143.991 301.527 143.645 298.733 144.013C297.434 144.177 296.285 144.928 294.768 144.832C294.008 144.81 293.252 144.947 292.547 145.233C291.843 145.519 291.205 145.948 290.675 146.493C281.01 155.764 273.772 166.392 271.334 179.863C268.982 192.86 270.142 205.25 277.556 216.543C278.535 218.034 278.62 218.928 277.231 220.056C276.428 220.773 275.713 221.585 275.103 222.472C273.298 224.867 273.086 227.225 274.895 229.86C280.265 237.673 286.449 244.804 292.943 251.681C294.193 253.006 294.497 253.964 293.805 255.773C290.116 265.439 286.423 275.121 284.161 285.253C283.831 286.738 283.629 288.248 283.41 289.756C283.134 291.661 284.246 292.815 285.72 293.658C305.977 305.206 326.637 315.825 349.331 321.923C356.399 323.822 363.451 325.765 370.572 327.452C371.765 327.713 373.02 327.772 374.564 327.98Z"/>
<path fill="white" d="M217.736 298.58C210.171 298.58 203.162 298.547 196.153 298.58C194.781 298.58 194.435 297.994 194.519 296.791C194.578 295.892 194.55 294.994 194.573 294.088C194.678 289.464 193.764 288.527 188.964 288.287C185.818 288.133 182.682 287.857 179.538 287.754C176.392 287.654 173.256 287.754 169.887 287.754C170.084 286.994 170.271 286.264 170.473 285.545C172.112 279.826 167.972 275.087 162.107 276.152C160.208 276.498 159.35 276.526 159.394 274.179C159.463 270.451 156.583 267.61 152.825 267.348C151.867 267.279 150.9 267.348 149.707 267.348C150.644 265.262 151.437 263.48 152.241 261.709C154.407 256.919 149.791 249.893 144.315 249.999C142.505 250.036 139.989 250.915 139.057 249.467C138.366 248.37 139.689 246.114 139.838 244.347C140.089 241.43 140.552 238.524 139.984 235.565C139.308 232.069 136.454 229.913 132.754 230.312C130.903 230.514 129.03 230.69 126.774 230.919C128.167 228.875 129.434 227.087 130.632 225.251C131.761 223.516 132.759 221.701 132.946 219.593C133.287 215.772 132.153 214.553 128.157 214.564C130.445 211.019 132.68 207.592 134.889 204.143C136.052 202.441 136.932 200.563 137.498 198.581C138.563 194.536 136.482 192.242 132.345 192.94C131.449 193.172 130.512 193.2 129.606 193.02C134.395 186.383 138.816 179.666 143.975 173.45C144.103 173.551 144.277 173.615 144.31 173.721C145.311 176.968 145.79 177.117 148.253 174.445C151.181 171.252 153.954 167.968 156.903 164.594C157.968 165.286 158.014 166.882 159.43 166.856C160.845 166.829 161.639 165.791 162.586 164.982C168.392 159.947 173.087 154.018 177.695 147.861C182.631 141.266 188.629 135.449 194.343 129.462C199.942 123.607 205.732 117.918 211.513 112.228C214.175 109.62 215.522 106.326 216.894 103.01C219.805 96.001 222.749 89.0022 225.606 81.9663C226.883 78.8316 226.601 78.2781 223.386 78.6081C211.044 79.8748 199.57 83.7494 189.725 91.4079C176.85 101.424 167.207 114.325 158.377 127.87C157.945 128.536 157.312 129.377 157.412 129.999C157.945 133.193 155.741 134.96 154.107 137.019C149.973 142.256 146.786 148.09 143.404 153.806C142.871 154.71 141.86 155.961 144 156.408C145.48 156.722 144.751 157.542 144.29 158.164C136.666 168.404 131.93 180.182 126.47 191.572C125.937 192.695 125.453 193.855 124.872 194.957C124.038 196.511 123.633 197.9 120.93 197.804C117.735 197.687 115.607 200.465 114.681 203.621C114.35 204.782 114.148 204.973 112.925 204.627C107.682 203.142 104.272 204.728 101.333 209.864C97.6721 205.468 93.9447 201.274 87.345 202.855C81.3802 204.281 77.8987 208.379 75.3668 213.851C73.3752 211.972 71.4372 209.955 68.506 210.083C66.97 210.149 65.4955 210.708 64.3 211.679C61.0488 214.298 60.6084 218.423 63.0993 224.421C58.7703 224.676 54.4977 224.421 50.2763 225.049C48.3281 225.347 46.3441 225.384 44.396 225.682C40.7172 226.214 40.1386 227.396 41.8103 230.743C44.3114 235.698 46.8817 240.621 49.4622 245.539C57.1191 260.139 64.7863 274.734 72.4612 289.326C72.8964 290.156 73.2522 290.921 72.9169 291.858C72.3639 293.491 72.2564 295.242 72.6046 296.929C73.1371 299.704 72.003 299.661 69.699 299.592C63.8801 299.379 58.0484 299.622 52.2193 299.686C51.8558 299.681 51.5025 299.804 51.2234 300.04C50.9444 300.273 50.7601 300.6 50.7038 300.959C50.5732 301.389 50.4708 301.827 50.394 302.269C49.1115 310.487 50.028 311.572 58.2558 311.562C91.0494 311.529 123.851 311.79 156.642 311.347C176.264 311.081 195.897 311.283 215.517 310.815C227.577 310.518 239.629 310.236 251.707 310.285C254.283 310.285 255.481 309.22 255.596 306.749C255.691 305.49 255.691 304.225 255.596 302.966C255.337 300.362 254.001 299.241 251.308 299.159C244.749 299.011 238.185 298.862 231.616 298.714C230.933 298.714 230.252 298.606 228.954 298.496C233.175 295.117 236.37 290.627 238.178 285.53C239.207 282.941 239.65 280.156 239.476 277.376C239.273 274.865 238.006 273.306 235.436 273.236C227.085 273.098 218.735 273.444 210.422 274.268C208.651 274.427 208.582 275.727 208.681 277.046C209.268 284.498 210.875 291.597 216.489 297.111C216.776 297.421 217.042 297.777 217.736 298.58Z"/>
<path fill="white" d="M325.956 415.268C325.791 418.383 326.786 419.187 328.857 418.463C329.789 418.143 330.66 417.669 331.433 417.057C339.778 410.24 348.97 404.518 357.032 397.332C360.125 394.58 360.252 393.741 357.804 390.377C354.643 385.894 350.883 381.865 346.628 378.401C344.611 376.806 342.774 376.492 340.587 378.153C336.303 381.404 331.848 384.428 327.601 387.732C326.196 388.797 324.328 389.952 327.223 392.143C329.98 394.23 330.986 397.327 329.634 401.193C327.915 406.013 326.994 411.139 325.956 415.268Z"/>
<path fill="white" d="M201.774 432.727C204.871 431.821 207.961 432.763 211.059 432.727C215.631 432.65 220.224 432.95 224.786 432.993C237.98 433.119 236.341 433.833 244.925 423.549C245.555 422.789 246.113 421.972 246.592 421.107C247.603 419.331 247.529 417.633 245.824 416.317C241.28 412.795 236.638 409.398 231.503 406.738C229.516 405.711 228.065 406.254 226.962 408.09C226.357 408.978 225.799 409.897 225.292 410.847C221.747 418.591 215.127 422.833 207.841 426.399C205.514 427.538 203.364 429.059 201.134 430.385C200.501 430.761 199.856 431.183 200.151 432.061C200.443 432.94 201.193 432.561 201.774 432.727Z"/>
<path fill="white" d="M379.248 432.655C380.963 432.653 382.611 431.987 383.846 430.797C385.081 429.606 385.808 427.983 385.874 426.271C385.943 422.013 382.771 418.186 379.21 418.186C375.485 418.186 371.69 421.719 372.153 425.211C372.686 429.176 374.341 432.934 379.248 432.655Z"/>
<path fill="white" d="M335.701 426.365C335.701 429.665 338.655 432.52 342.146 432.561C345.638 432.604 349.172 429.207 349.119 425.748C349.065 422.39 345.712 418.829 342.498 418.744C339.107 418.644 335.723 422.449 335.701 426.365Z"/>
<path fill="white" d="M422.799 431.572C426.589 431.572 429.718 428.539 429.628 425.037C429.537 421.535 426.121 418.092 422.656 418.063C419.191 418.038 415.982 421.043 416.307 424.307C416.721 428.526 418.281 431.77 422.799 431.572Z"/>
<path fill="#2D2D2D" d="M152.916 299.177C120.312 299.023 87.7081 299.172 55.104 299.622C50.8928 299.676 49.9789 300.649 50.3142 304.771C50.8467 311.38 51.1078 311.688 57.7638 311.624C90.9056 311.396 124.052 311.252 157.194 310.848C188.442 310.464 219.681 309.783 250.929 309.32C253.65 309.284 254.746 308.372 254.804 305.823C254.804 305.019 254.943 304.228 254.889 303.406C254.628 299.602 254.612 299.681 250.742 299.592C218.122 298.867 185.518 299.282 152.916 299.177Z"/>
<path fill="#E7E7E7" d="M225.403 399.654C225.403 401.06 226.161 401.846 226.911 402.634C229.422 405.297 232.54 407.109 235.553 409.057C240.215 412.076 244.728 415.34 249.631 417.994C252.186 419.379 253.776 418.665 255.368 416.397C260.818 408.707 266.46 401.149 271.92 393.469C277.594 385.487 283.629 377.764 289.574 370.004C290.638 368.604 291.17 368.94 292.235 369.925C299.154 376.379 306.743 381.996 314.535 387.343C315.424 387.95 316.409 388.408 317.287 389.036C320.379 391.224 323.141 391.112 326.334 388.785C331.928 384.694 337.415 380.472 342.753 376.061C346.362 373.079 346.255 371.397 342.833 368.243C340.917 366.474 339.108 364.564 337.319 362.685C336.915 362.26 336.148 361.892 336.425 361.175C336.702 360.456 337.516 360.85 338.086 360.722C349.795 358.029 361.11 354.419 369.694 345.362C373.377 341.476 375.985 336.922 376.837 331.492C377.236 328.927 376.198 327.767 373.723 327.155C354.946 322.668 336.792 316.224 318.777 309.394C308.324 305.434 298.632 299.814 288.44 295.212C283.932 293.179 283.98 293.082 281.596 297.377C266.023 325.322 250.45 353.27 234.878 381.222C231.918 386.545 229.107 391.959 226.25 397.338C225.831 398.141 225.239 398.886 225.403 399.654Z"/>
<path fill="#2D2D2D" d="M413.539 163.417C416.381 163.95 417.355 162.72 418.169 161.257C419.287 159.256 420.128 157.324 418.462 155.056C414.874 150.211 411.029 145.562 406.944 141.128C399.956 133.485 392.766 126.061 384.405 119.839C377.939 115.012 370.567 111.999 363.361 108.593C361.764 107.838 360.364 108.221 359.385 109.722C355.308 115.981 350.375 121.585 345.872 127.514C343.36 130.83 343.403 130.707 347.416 131.58C357.395 133.73 366.081 138.243 373.095 145.764C378.263 151.325 379.083 157.749 376.991 164.759C376.305 167.068 375.48 169.33 374.692 171.608C373.809 174.147 375.139 175.813 377.752 175.1C380.653 174.307 383.074 175.057 384.671 177.298C386.39 179.687 385.443 182.253 383.985 184.568C382.031 187.671 378.758 188.9 375.65 190.236C373.862 191.008 372.92 192.03 372.717 193.93C372.121 199.619 371.456 205.298 370.844 210.987C370.764 211.69 370.727 212.462 371.562 212.845C372.398 213.228 372.946 212.765 373.425 212.201C381.286 202.786 390.6 194.755 398.743 185.59C401.793 182.162 404.927 178.809 408.073 175.477C408.508 175.027 408.836 174.485 409.035 173.891C409.234 173.297 409.298 172.666 409.222 172.045C409.008 170.074 409.266 168.08 409.973 166.227C410.798 164.29 412.213 163.3 413.539 163.417Z"/>
<path fill="#2D2D2D" d="M247.756 419.256C245.911 418.829 245.181 420.278 244.387 421.384C243.509 422.63 242.508 423.188 240.988 422.863C235.133 421.601 229.309 420.342 223.454 419.139C221.859 418.813 222.126 418.181 222.763 417.116C224.233 414.656 226.053 412.411 227.197 409.751C227.484 409.075 227.968 408.351 227.138 407.882C226.483 407.514 225.792 407.818 225.249 408.461C223.052 410.959 221.107 413.665 219.438 416.54C218.544 418.092 217.19 419.325 215.562 420.07C210.304 422.779 204.789 425.226 200.309 429.043C196.999 431.859 193.641 432.131 189.744 432.151C179.312 432.21 168.898 431.119 158.466 431.619C136.693 432.645 114.903 431.721 93.1247 432.284C92.1032 432.284 90.9973 432.609 89.7353 431.859C93.5983 427.479 97.3359 423.15 101.168 418.903C116.602 401.8 131.978 384.62 147.806 367.864C150.766 364.728 150.781 364.756 153.687 367.795C169.003 383.805 184.322 399.813 199.639 415.823C201.692 417.951 203.678 420.18 205.685 422.374C206.366 423.114 207.101 424.082 208.138 423.188C209.356 422.124 208.025 421.437 207.452 420.787C196.157 408.069 184.849 395.356 173.527 382.653C167.674 376.056 161.879 369.393 155.965 362.852C154.649 361.398 154.659 360.614 156.034 359.178C168.683 345.976 180.961 332.429 192.87 318.538C193.863 317.373 194.997 316.275 195.712 314.947C196.999 312.476 198.86 312.033 201.523 311.939C214.827 311.45 228.134 311.711 241.438 311.293C245.754 311.16 250.065 311.017 254.377 311.027C255.91 311.027 256.171 310.523 256.363 309.012C256.65 306.701 256.788 304.376 256.778 302.049C256.778 299.039 255.792 298.053 252.733 298.038C246.697 298.038 240.663 298.038 234.636 298.038H232.204C234.429 296.097 236.295 293.783 237.719 291.197C238.384 289.948 239.347 290.501 240.273 290.719C242.903 291.336 245.452 291.251 247.756 289.654C249.922 288.184 250.69 286.052 250.153 283.546C249.884 282.309 249.208 281.201 248.23 280.397C247.255 279.593 246.036 279.142 244.771 279.117C243.627 279.089 242.455 278.915 241.349 279.437C240.391 272.271 242.03 272.33 233.116 272.123C227.463 271.985 221.795 272.33 216.163 271.59C213.806 271.27 211.545 272.079 209.213 272.156C207.313 272.218 207.083 273.8 207.083 275.305C207.116 283.651 208.814 291.428 215.201 298.038C208.814 298.038 202.854 298.038 196.871 298.038C195.881 298.038 195.594 297.569 195.753 296.701C195.85 296.169 196.083 295.675 196.157 295.148C197.009 289.175 195.993 287.941 190.548 287.744C171.192 287.048 151.823 287.375 132.462 287.34C129.748 287.34 128.322 286.497 127.139 284.145C118.904 267.965 110.604 251.822 102.236 235.714C100.884 233.09 99.4223 230.519 97.9093 227.986C97.3359 227.017 97.021 224.952 95.4978 225.83C94.3535 226.49 95.4568 228.146 95.9944 229.237C98.8898 235.091 101.767 240.946 104.77 246.704C111.37 259.402 118.013 272.079 124.697 284.736C125.591 286.446 125.803 287.301 123.223 287.276C110.704 287.163 98.1756 287.212 85.652 287.276C82.2523 287.276 78.8553 287.585 75.4556 287.77C74.4188 287.823 73.6354 287.724 73.0594 286.595C63.2956 267.471 52.8943 248.679 43.3788 229.428C43.1483 228.882 42.9487 228.322 42.7823 227.752C43.9522 227.752 44.9122 227.752 45.8953 227.752C61.4677 228.082 76.989 226.182 92.5615 226.661C93.3653 226.687 94.4405 226.772 94.4226 225.687C94.4072 224.601 93.4242 224.862 92.582 224.883C81.5228 225.144 70.4789 224.617 59.43 224.111C53.4319 223.835 47.3852 223.579 41.3999 224.532C38.5352 224.979 37.949 226.187 39.4031 228.79C50.4316 248.413 60.4463 268.636 71.0217 288.532C72.3324 291 71.2034 294.098 71.229 296.904C71.229 297.754 70.4047 297.085 69.9695 297.068C63.7922 296.878 57.6098 297.193 51.4837 298.01C49.4203 298.26 48.5781 299.469 48.6165 301.496C48.6626 304.289 48.6805 307.085 48.6165 309.873C48.573 311.529 49.3769 312.284 50.8617 312.732C52.5487 313.265 54.2511 313.162 55.9484 313.162C71.4492 313.183 86.9449 313.183 102.438 313.162C103.907 313.162 104.721 313.595 105.633 314.865C111.621 323.354 118.937 330.721 125.964 338.327C132.687 345.608 139.463 352.835 146.293 360.008C147.566 361.344 147.561 362.079 146.362 363.484C131.504 380.861 116.213 397.855 100.879 414.812C95.9305 420.283 90.9282 425.718 86.0847 431.278C85.1324 432.369 84.1672 432.402 83.0076 432.412L52.2031 432.673C51.8421 432.673 51.4837 432.673 51.1381 432.673C50.3983 432.673 49.4255 432.673 49.4024 433.518C49.4024 434.529 50.4418 434.258 51.1074 434.281C56.8648 434.465 62.6248 434.716 68.3823 434.785C88.0738 435.016 107.819 435.003 127.529 435.412C163.545 436.163 199.559 436.262 235.568 435.717C274.474 435.185 313.379 435.51 352.279 435.425C383.978 435.356 415.683 435.732 447.382 435.914H449.271C450.261 435.914 451.459 436.037 451.374 434.552C451.299 433.188 450.149 433.167 449.144 433.226C442.485 433.587 435.838 433.472 429.143 433.311C428.946 432.205 429.914 431.928 430.367 431.363C434.545 426.079 432.017 418.819 425.433 417.431C424.785 417.326 424.167 417.08 423.622 416.714C423.078 416.346 422.621 415.864 422.282 415.301C419.827 411.551 417.262 407.869 414.586 404.257C408.732 396.365 400.568 392.118 391.169 390.026C388.96 389.532 388.3 389.271 389.008 386.662C392.201 374.804 395.783 363.026 397.848 350.881C398.066 349.599 398.827 349.407 399.945 349.368C405.507 349.204 411.084 349.076 416.614 348.682C420.601 348.401 424.64 348.682 428.632 347.878C430.729 347.459 431.889 346.522 432.453 344.686C432.963 343.171 433.307 341.606 433.48 340.019C433.906 334.748 433.087 334.239 427.871 333.632C421.309 332.877 414.757 333.164 408.216 333.253C399.333 333.376 390.456 333.908 381.605 334.377C380.338 334.441 377.986 334.08 378.103 335.708C378.23 337.495 380.535 336.963 381.967 336.916C387.172 336.75 392.382 336.059 397.587 336.443C406.928 337.139 416.279 336.893 425.625 336.975C426.945 336.975 428.712 337.032 429.089 338.209C429.351 339.072 429.439 339.981 429.348 340.877C429.256 341.775 428.988 342.648 428.557 343.439C428.179 344.143 427.493 343.972 426.881 343.972C425.619 343.972 424.358 344.01 423.097 343.972C414.464 343.764 405.842 344.376 397.231 344.681C388.534 344.983 379.715 344.878 370.683 347.405C373.542 343.468 375.926 339.837 376.937 335.526C377.283 334.057 377.592 332.577 377.831 331.087C377.949 330.337 377.757 329.554 376.841 329.49C376.07 329.421 375.905 330.081 375.702 330.732C371.599 343.839 362.056 351.36 349.666 355.853C345.994 357.181 342.157 358.054 338.463 359.332C337.122 359.8 336.334 359.475 335.323 358.684C330.751 355.054 326.121 351.483 321.485 347.912C320.927 347.464 320.318 347.085 319.67 346.783C319.095 346.527 318.356 346.394 317.962 347.028C317.843 347.274 317.809 347.553 317.865 347.82C317.921 348.088 318.063 348.329 318.271 348.508C319.074 349.353 319.766 350.31 320.618 351.104C327.994 357.985 335.392 364.844 342.811 371.681C343.876 372.649 344.296 373.102 342.848 374.213C336.361 379.185 329.969 384.294 323.566 389.371C322.752 390.016 322.22 390.515 321.054 389.686C311.793 383.053 302.155 376.95 293.283 369.779C285.661 363.617 278.998 356.644 274.581 347.758C269.29 337.114 271.77 327.532 281.553 320.842C286.545 317.425 292.096 315.218 297.732 313.178C300.672 312.115 303.54 310.858 306.317 309.422C306.897 309.117 307.599 308.846 307.307 308.106C307.094 307.574 306.311 307.653 305.854 307.82C294.411 311.918 282.654 315.494 273.809 324.488C267.204 331.21 266.102 339.077 269.966 347.666C273.314 355.118 278.961 360.684 284.948 365.837C295.704 375.081 306.551 384.246 318.675 391.729C320.538 392.878 322.14 394.56 324.561 392.463C325.567 391.59 328.447 395.264 328.09 397.13C326.93 403.156 325.716 409.17 324.545 415.194C324.432 415.992 324.36 416.796 324.327 417.6C324.205 418.957 323.449 420.585 325.104 421.412C326.562 422.134 327.84 421.064 328.958 420.25C335.557 415.434 342.119 410.565 348.836 405.811C346.409 409.536 343.556 413.002 341.486 416.963C341.252 417.408 340.778 417.408 340.342 417.531C332.976 419.597 330.858 425.828 335.397 432.013C335.594 432.279 335.812 432.545 336.041 432.812H238.901C241.354 429.788 243.43 427.489 245.212 424.95C246.415 423.247 248.56 421.816 247.657 419.174L247.756 419.256ZM191.772 312.136C191.621 312.453 191.444 312.758 191.239 313.044C178.132 326.697 165.624 340.887 153.336 355.267C151.802 357.061 151.063 357.396 149.248 355.4C136.645 341.563 124.5 327.25 111.04 314.184C110.801 313.946 110.507 313.705 110.842 313.178C137.676 313.142 164.613 313.398 191.772 312.136ZM338.665 361.354C350.512 360.072 360.779 356.385 369.294 348.582C369.662 348.247 369.928 347.794 370.497 348.539C371.296 349.565 372.568 349.412 373.739 349.407C379.502 349.407 385.267 349.407 391.03 349.376C392.574 349.376 393.34 349.491 392.829 351.419C389.703 363.231 387.06 375.148 384.899 387.174C384.665 388.483 384.005 388.861 382.701 388.923C376.139 389.238 369.784 390.52 363.951 393.715C362.886 394.309 362.594 393.969 361.795 393.091C357.415 388.301 352.859 383.713 348.304 379.105C347.564 378.36 346.707 376.975 345.435 378.007C344.163 379.041 345.589 379.891 346.111 380.713C346.579 381.448 347.021 381.967 345.93 382.628C340.65 385.789 336.302 390.116 331.597 394.278C330.943 392.351 329.048 391.393 328.276 389.588C330.815 387.738 333.231 386.03 335.584 384.23C339.841 380.956 344.424 378.045 348.384 374.356C349.858 372.984 350.374 371.958 348.352 370.33C345.073 367.672 342.146 364.618 338.66 361.354H338.665ZM237.985 300.741C243.089 300.741 247.5 300.741 251.919 300.741C252.605 300.741 253.596 300.465 253.857 301.274C254.553 303.493 253.857 305.764 253.452 307.904C253.227 309.069 251.381 308.462 250.257 308.467C200.368 308.644 150.476 307.735 100.587 308.756C86.2178 309.048 71.805 309.315 57.4076 309.379C55.5285 309.379 53.1503 310.592 51.8677 309.245C50.4367 307.776 51.558 305.27 51.2815 303.242C51.005 301.215 51.6706 300.634 53.7519 300.672C63.3903 300.846 73.0338 301.033 82.6671 301.097C119.219 301.343 155.783 301.629 192.337 300.662C196.062 300.564 199.644 301.251 203.328 301.32C215.137 301.55 226.892 300.511 237.985 300.741ZM384.596 433.183C385.176 432.545 385.474 432.259 385.724 431.933C389.982 426.312 388.22 419.927 381.551 417.564C379.955 417.032 380.977 416.338 381.11 415.818C382.707 409.623 384.468 403.469 385.942 397.248C386.512 394.852 387.592 394.092 389.849 394.816C390.189 394.929 390.514 395.087 390.86 395.177C398.79 397.204 405.23 401.905 411.681 406.653C415.422 409.477 418.508 413.076 420.728 417.206C417.003 418.212 414.746 420.495 414.129 424.056C413.533 427.469 414.496 430.564 417.466 433.162L384.596 433.183ZM343.817 417.797C345.442 414.505 347.489 411.438 349.906 408.676C358.203 399.281 368.72 394.465 381.184 393.702C383.074 393.592 383.553 394.235 383.159 396.024C381.732 402.447 380.317 408.878 379.034 415.327C378.805 416.499 378.502 416.817 377.326 417.088C370.636 418.616 368.166 425.966 372.381 431.396C372.781 431.928 373.616 432.195 373.494 432.993H348.431C353.28 426.399 351.257 419.83 343.817 417.797ZM74.7849 290.842C76.2697 291.699 77.7186 291.517 79.1445 291.517C94.6095 291.517 110.072 291.561 125.532 291.059C138.652 290.634 151.782 290.619 164.917 290.422C165.189 290.422 165.45 290.422 165.726 290.422C174.886 290.452 184.033 289.549 193.013 290.048C193.013 292.05 192.793 294.034 193.077 295.941C193.359 297.846 192.693 298.24 190.996 298.068C181.324 297.091 171.596 297.349 161.914 297.196C136.076 296.786 110.225 297.052 84.3874 297.057C83.2226 297.052 82.0604 297.162 80.916 297.382C75.1356 298.516 74.4444 297.915 74.6159 292.145C74.5928 291.858 74.6569 291.597 74.7849 290.842ZM223.557 275.295V275.333C227.612 275.333 231.667 275.397 235.724 275.3C237.399 275.264 238.097 275.576 237.921 277.509C237.25 284.928 234.196 290.995 228.495 295.854C224.46 299.287 220.093 299.049 216.75 294.912C212.349 289.495 210.688 283.108 209.83 276.39C209.643 274.924 210.708 275.328 211.427 275.328C215.452 275.279 219.507 275.295 223.557 275.295ZM330.783 403.354C331.741 402.644 332.662 403.034 333.508 402.921C334.354 402.811 335.472 403.272 335.695 401.964C335.919 400.655 334.971 400.42 333.907 400.164C333.071 399.962 331.651 400.084 331.619 398.994C331.587 397.903 332.22 396.982 333.348 396.242C338.455 392.901 343.292 389.164 347.814 385.065C348.878 384.118 349.326 384.417 350.113 385.247C352.333 387.599 354.552 389.962 356.931 392.166C358.325 393.454 357.915 393.943 356.59 394.911C350.358 399.478 344.222 404.168 338.059 408.819C334.865 411.213 331.725 413.609 328.18 416.323C328.782 413.348 329.298 410.926 329.74 408.494C329.857 407.828 329.862 407.316 330.756 407.247C332.092 407.142 334.179 407.78 334.322 405.875C334.455 404.129 332.14 404.534 331.033 403.779C330.943 403.715 330.916 403.612 330.783 403.354ZM241.646 424.712C239.859 426.924 238.295 428.867 236.718 430.799C236.185 431.427 235.712 431.905 234.711 431.864C224.727 431.268 214.727 431.747 204.733 431.57C204.009 431.57 203.136 431.974 202.449 431.081C204.344 429.975 206.282 429.01 208.015 427.771C209.612 426.652 210.677 426.706 211.742 428.367C212.211 429.117 212.981 429.937 213.954 429.212C214.758 428.618 214.131 427.727 213.954 426.972C213.78 426.217 212.567 425.375 213.609 424.712C214.653 424.046 215.042 425.428 215.738 425.882C215.961 426.025 216.122 426.271 216.34 426.414C216.581 426.621 216.883 426.744 217.2 426.767C217.518 426.788 217.835 426.706 218.101 426.532C218.762 425.999 218.127 425.467 218.027 424.876C217.873 423.992 216.227 423.278 217.361 422.385C218.373 421.581 219.394 420.787 221.173 421.171C227.729 422.592 234.355 424.105 241.625 424.712H241.646ZM337.34 425.098C337.393 422.395 340.342 419.569 342.981 419.692C345.297 419.804 348.155 423.158 348.155 425.759C348.155 428.362 345.345 431.13 342.774 431.032C339.868 430.927 337.265 428.086 337.319 425.111L337.34 425.098ZM428.179 424.837C428.179 427.5 425.795 429.952 423.251 429.847C420.968 429.75 418.461 426.962 418.461 424.525C418.461 422.364 421.122 419.297 423.033 419.238C425.39 419.159 428.153 422.157 428.179 424.837ZM374.611 424.945C374.611 422.162 376.778 419.697 379.242 419.676C381.099 419.676 383.287 422.482 383.308 424.919C383.334 427.855 381.53 429.952 378.981 429.957C376.431 429.965 374.59 427.899 374.59 424.945H374.611ZM239.173 288.138C239.628 286.753 240.273 285.445 240.455 284.076C240.647 282.57 241.651 282.135 242.754 281.889C243.243 281.789 243.75 281.859 244.195 282.084C244.641 282.309 244.997 282.678 245.207 283.128C245.465 283.658 245.562 284.25 245.491 284.833C245.417 285.414 245.176 285.965 244.797 286.413C243.34 288.192 241.449 288.617 239.173 288.138Z"/>
<path fill="#2D2D2D" d="M428.494 165.743C428.265 162.832 426.573 162.018 423.875 162.332C421.788 162.582 420.905 161.411 421.634 159.554C422.267 157.957 421.596 156.605 420.825 155.296C417.866 150.469 414.493 145.908 410.745 141.666C401.516 130.888 391.515 120.957 379.184 113.676C374.564 110.946 369.87 108.386 364.686 106.794C362.69 106.182 361.285 106.459 359.971 108.04C353.302 116.023 346.665 124.033 340.401 132.4C330.975 145.045 323.727 158.856 317.542 173.269C314.945 179.32 313.758 185.59 317.063 191.897C319.644 196.83 324.025 199.747 328.692 202.317C332.822 204.59 332.886 204.563 330.236 208.369C328.591 210.732 326.052 210.556 323.817 209.891C317.377 207.975 311.539 204.611 305.445 201.849C303.742 201.077 302.081 200.13 300.123 200.162C299.702 200.162 299.271 200.22 299 199.694C294.153 190.231 293.782 180.599 297.887 170.799C298.419 169.479 299.963 167.638 298.329 166.914C297.009 166.329 296.2 168.617 295.631 169.985C292.533 177.255 291.33 184.701 293.502 192.482C294.268 195.526 295.911 198.278 298.228 200.396C290.415 205.559 284.465 212.775 277.445 218.784C275.938 220.072 274.555 221.499 273.091 222.834C270.893 224.841 270.6 226.294 272.521 228.625C275.89 232.718 279.44 236.651 282.932 240.664C285.167 243.24 287.365 245.853 289.627 248.413C290.191 249.046 290.692 249.85 292.07 250.052C291.059 247.391 289.409 245.47 287.876 243.543C283.771 238.558 280.021 233.291 276.657 227.779C276.237 227.071 275.183 226.448 276.567 225.389C282.543 220.828 287.456 215.176 292.443 209.603C294.72 207.065 296.855 203.584 299.745 202.631C302.634 201.679 304.992 205.681 307.76 207.235C311.975 209.604 316.222 211.759 321.156 212.754C317.201 219.631 311.906 225.134 306.786 230.797C306.083 231.574 304.875 232.186 305.546 233.458C306.216 234.73 307.483 234.336 308.489 234.181C314.524 233.255 320.56 232.393 326.696 232.531C327.436 232.531 328.602 232.606 328.463 231.504C328.357 230.621 327.26 231.036 326.611 231.009C320.747 230.768 314.873 231.01 309.048 231.733C312.034 228.231 314.62 225.203 317.201 222.153C317.801 221.485 318.366 220.787 318.894 220.062C321.486 216.336 324.067 212.658 329.666 213.829C330.305 215.804 329.363 218.241 329.602 220.706C329.874 223.63 330.421 226.522 331.236 229.343C331.454 230.089 331.289 231.286 332.301 231.276C333.392 231.276 333.051 230.046 333.163 229.322C333.988 224.027 333.301 218.763 332.668 213.521C332.497 212.105 332.561 211.764 334.03 211.956C337.926 212.462 341.817 212.69 345.697 211.583C346.921 211.232 347.825 210.748 348.475 209.561C341.859 206.288 334.834 203.834 328.719 199.619C325.392 197.33 322.109 195.021 319.948 191.423C316.355 185.43 317.75 179.432 320.177 173.7C323.657 165.477 327.968 157.643 332.545 149.963C333.556 148.26 335.004 148.898 336.303 148.707C337.602 148.515 338.187 149.569 338.368 150.697C338.495 151.528 338.762 152.118 339.683 152.028C340.976 151.895 340.545 150.825 340.529 150.128C340.47 147.531 338.671 146.104 335.297 145.96C335.803 144.268 337.032 143.033 337.873 141.58C338.019 141.302 338.239 141.07 338.51 140.911C338.781 140.752 339.092 140.672 339.406 140.681C341.194 140.681 342.982 140.5 344.771 140.505C345.526 140.505 346.511 141.107 346.835 140.095C347.064 139.382 346.149 138.903 345.58 138.525C344.393 137.743 343.349 136.636 341.566 136.891C342.163 134.991 343.456 133.826 344.307 132.4C344.84 131.521 345.537 131.42 346.596 131.83C356.304 135.476 365.044 141.303 372.143 148.861C376.4 153.406 376.933 158.808 374.947 164.578C374.027 167.276 373.127 169.985 372.345 172.726C371.674 175.084 372.584 176.228 375.075 176.334C377.204 176.425 379.375 176.127 381.462 177.021C384.565 178.367 385.225 180.746 383.058 183.408C381.874 184.875 380.385 186.067 378.694 186.901C377.003 187.736 375.151 188.193 373.266 188.24C371.749 188.32 370.221 188.139 368.752 188.772C367.911 189.134 367.337 189.688 367.411 190.555C367.428 190.922 367.576 191.27 367.828 191.536C368.08 191.803 368.419 191.971 368.784 192.008C371.137 192.232 370.913 193.786 370.796 195.494C370.349 201.881 368.737 208.145 369.62 214.606C369.726 215.415 369.774 216.735 368.124 216.937C359.295 218.13 351.093 221.232 343.206 225.288C340.673 226.587 338.224 228.066 335.755 229.514C335.159 229.86 334.296 230.392 334.813 231.169C335.329 231.946 336.085 231.382 336.755 231.068C343.052 228.119 349.369 225.213 356.053 223.239C360.136 222.025 364.239 220.881 368.295 219.561C369.141 219.284 369.359 219.561 369.726 220.093C373.042 225.054 377.635 225.522 383.16 224.665C389.014 223.761 394.746 222.755 400.228 220.578C401.734 219.976 401.947 221.004 402.442 221.711C405.672 226.358 408.706 231.153 412.097 235.672C415.822 240.627 419.856 245.342 423.933 250.382C417.61 253.49 411.383 256.556 405.151 259.612C403.554 260.393 401.984 261.245 400.334 261.906C395.012 264.033 392.83 268.413 391.42 273.533C387.343 288.292 384.272 303.281 381.254 318.272C380.7 320.635 380.462 323.062 380.546 325.489C380.637 326.884 380.136 327.619 378.417 327.037C353.935 319.076 329.616 310.656 305.461 301.778C298.766 299.264 292.283 296.215 286.077 292.662C284.832 291.955 284.326 291.512 284.763 289.836C287.956 277.499 292.592 265.651 296.472 253.56C297.536 250.254 298.515 246.923 299.553 243.612C299.787 242.867 300.5 241.909 299.553 241.484C298.324 240.909 298.159 242.271 297.861 243C294.268 251.819 290.83 260.698 288.105 269.834C286.327 275.797 284.443 281.725 283.044 287.793C282.075 291.976 282.16 292.485 285.928 294.71C296.008 300.692 306.754 305.354 317.292 310.438C335.52 319.199 354.84 324.457 374.575 328.353C381.089 329.641 381.137 329.582 382.223 323.899C385.549 306.504 390.366 289.505 395.619 272.612C396.832 268.705 398.812 265.828 402.484 263.9C409.371 260.28 416.099 256.374 422.964 252.724C428.084 249.994 428.819 248.221 425.966 243.203C425.125 241.712 425.817 240.914 426.584 239.887C431.235 233.655 436.302 227.694 438.686 220.062C440.593 213.942 441.818 207.631 442.337 201.242C442.969 193.601 442.193 185.91 440.049 178.548C439.285 175.965 438.156 173.505 436.696 171.241C436.264 170.554 435.509 169.873 436.211 169.112C436.914 168.351 437.702 169.192 438.393 169.479C450.448 174.562 455.888 184.339 457.931 196.681C459.028 203.51 459.349 210.441 458.889 217.342C458.144 229.37 456.063 241.233 453.354 253.001C447.361 278.973 437.611 303.488 425.019 326.92C424.529 327.826 423.619 329.05 424.816 329.779C426.2 330.604 426.77 329.247 427.313 328.151C437.537 307.927 446.653 287.171 453.865 265.684C457.754 254.318 460.589 242.618 462.333 230.733C463.155 225.439 463.587 220.091 463.626 214.734C463.525 202.296 462.397 189.869 454.743 179.251C450.539 173.396 444.775 169.575 438.095 167.063C436.76 166.563 435.392 166.11 434.051 167.063C433.21 167.675 432.778 166.77 432.289 166.467C431.081 165.716 429.894 165.264 428.484 165.733C427.116 165.775 426.615 166.882 425.971 167.792C424.684 169.607 424.375 171.72 424.109 173.86C424.013 174.727 423.773 175.398 422.634 175.286C421.495 175.174 421.655 174.408 421.645 173.726C421.537 172.292 421.56 170.851 421.714 169.421C422.006 167.664 422.602 165.882 424.087 164.759C425.572 163.635 426.456 165.541 427.712 165.722C427.972 165.75 428.233 165.757 428.494 165.743ZM413.31 174.546C414.992 175.611 416.317 177.01 418.866 176.595C420.234 176.372 421.889 178.554 423.906 177.303C424.439 176.989 424.263 177.702 424.364 177.947C425.008 179.512 425.961 180.608 427.834 180.076C429.431 179.608 430.815 176.797 430.421 175.211C430.261 174.546 429.974 173.945 429.293 173.875C428.611 173.806 428.228 174.371 428.148 175.073C428.026 176.015 427.813 176.92 426.706 177.399C426.115 174.706 426.174 172.247 427.494 169.948C428.744 167.819 429.974 167.67 431.751 169.415C433.074 170.758 434.089 172.373 434.726 174.147C439.564 186.489 440.219 199.135 437.345 211.988C434.742 223.633 429.085 233.734 421.325 242.857C418.075 238.767 415.223 234.376 412.809 229.743C410.76 225.756 408.664 221.759 405.305 218.635C403.554 216.996 401.58 216.458 399.382 217.246C393.994 219.08 388.442 220.392 382.803 221.163C379.301 221.695 375.522 223.239 372.574 219.135C371.158 217.161 371.477 215.894 372.813 214.638C385.485 202.716 397.024 189.709 408.845 176.978C409.77 175.983 410.345 174.509 412.198 175.685C412.767 176.042 413.603 175.589 413.32 174.535C411.415 173.295 409.707 171.874 410.361 169.272C410.894 167.143 411.628 165.014 414.688 164.519C412.895 167.862 413.539 171.241 413.31 174.546ZM376.837 173.572C377.821 170.868 378.721 168.362 379.657 165.865C382.441 158.462 381.18 151.73 376.012 145.859C368.598 137.429 359.034 132.554 348.267 129.962C346.75 129.595 346.319 129.542 347.426 128.115C351.977 122.224 356.474 116.273 360.945 110.339C361.626 109.439 362.329 108.982 363.404 109.807C365.479 111.404 367.933 112.329 370.269 113.458C383.969 120.073 395.028 129.983 405.018 141.229C409.276 146.019 413.166 151.059 417.259 155.966C419.319 158.441 417.557 160.086 416.684 161.948C416.008 163.401 414.992 163.907 413.363 162.71C412.357 161.975 411.085 162.811 410.218 163.609C408.461 165.232 407.557 167.425 408.062 169.666C408.594 172.007 407.833 173.2 406.199 174.865C398.184 183.019 390.43 191.428 382.606 199.768C379.136 203.467 375.719 207.219 372.281 210.945C373.961 205.549 374.743 199.914 374.596 194.265C374.548 192.668 375.432 192.354 376.656 192.061C380.626 191.119 384.006 189.241 386.135 185.611C388.972 180.821 386.667 175.621 381.292 174.152C379.902 173.774 378.487 173.79 376.837 173.572ZM418.499 174.791C415.535 174.009 415.476 171.752 415.774 169.655C416.12 167.249 416.423 164.62 419.079 163.38C419.376 163.261 419.701 163.235 420.014 163.303C420.326 163.371 420.61 163.532 420.83 163.763C421.362 164.253 420.937 164.732 420.681 165.2C419.119 168.148 418.366 171.457 418.499 174.791Z"/>
<path fill="#2D2D2D" d="M473.578 219.731C473.775 203.764 471.066 189.879 462.934 177.563C455.892 166.919 446.147 159.771 433.491 157.147C430.995 156.615 428.355 156.03 425.742 156.546C425.082 156.674 423.853 156.631 423.986 157.754C424.081 158.6 425.05 158.504 425.768 158.563C437.254 159.479 447.185 163.885 455.376 172.002C461.928 178.5 465.419 186.659 467.516 195.462C469.645 204.446 469.788 213.648 469.145 222.759C468.155 236.672 464.887 250.206 460.975 263.575C454.577 285.34 445.298 306.15 433.385 325.458C432.682 326.602 431.9 327.698 431.139 328.804C430.681 329.469 429.957 330.204 430.974 330.844C431.9 331.428 432.645 330.939 433.166 330.002C434.524 327.585 435.929 325.212 437.291 322.785C447.302 305.052 456.946 287.127 464.046 267.965C468.171 256.947 471.028 245.495 472.561 233.83C473.211 228.678 473.711 223.531 473.578 219.731Z"/>
<path fill="#0067FF" d="M175.908 150.974C178.568 151.41 180.406 149.755 182.006 147.914C190.231 138.488 198.377 128.999 206.58 119.552C208.996 116.763 211.502 114.059 213.952 111.302C214.398 110.802 215.409 110.291 214.866 109.604C214.324 108.918 213.392 109.418 212.739 109.908C208.807 112.76 205.113 115.926 201.695 119.376C194.087 127.046 186.932 135.153 180.268 143.656C177.265 147.483 176.338 147.615 172.368 144.678C167.647 141.181 163.636 136.897 159.419 132.847C158.221 131.697 158.185 130.483 158.792 128.951C160.587 124.416 163.976 121.01 166.951 117.348C174.51 107.952 182.784 99.1516 191.693 91.0246C192.269 90.4924 193.38 89.8217 192.784 89.1351C192.003 88.225 191.012 89.0872 190.208 89.6993C180.383 97.1505 172.055 106.017 164.785 115.932C161.874 119.908 158.892 123.836 155.897 127.748C153.623 130.723 153.234 133.427 155.541 136.365C160.105 142.302 165.955 147.13 172.652 150.484C173.679 150.92 174.8 151.088 175.908 150.974Z"/>
<path fill="#2D2D2D" d="M247.657 419.169C248.164 419.31 248.66 419.489 249.142 419.702C250.258 420.288 251.456 420.687 252.216 419.395C252.979 418.102 252.032 417.16 251.021 416.494C246.518 413.545 241.971 410.665 237.463 407.706C234.314 405.642 231.286 403.374 228.065 401.421C226.368 400.389 226.501 399.511 227.356 398.026C235.389 384.187 243.405 370.317 250.829 356.129C260.61 337.449 270.641 318.899 280.92 300.485C281.723 299.039 283.74 296.676 282.287 295.872C280.691 295.004 279.839 297.915 279.067 299.366C261.856 331.53 242.685 362.601 225.984 395.044C222.466 401.879 222.318 402.14 228.646 406.753C234.765 411.277 241.139 415.452 247.731 419.256L247.657 419.169Z"/>
<path fill="#2D2D2D" d="M306.637 332.636C315.536 332.636 324.11 334.82 332.716 336.714C339.31 338.166 345.947 339.023 352.679 338.55C357.863 338.176 362.147 335.596 366.081 332.393C366.714 331.86 367.454 331.136 366.927 330.337C366.331 329.421 365.304 329.805 364.521 330.273C362.062 331.727 359.582 333.133 356.746 333.701C351.227 334.812 345.718 334.372 340.215 333.489C331.944 332.168 323.775 330.376 315.349 329.843C311.076 329.564 306.788 329.585 302.518 329.902C294.172 330.524 290.713 335.511 293.363 343.462C296.014 351.414 301.65 356.987 307.537 362.447C313.684 368.131 320.762 372.559 327.559 377.403C328.091 377.769 328.708 379.19 329.714 377.869C330.72 376.55 329.23 376.417 328.708 375.959C320.933 369.18 312.119 363.617 305.147 355.884C301.485 351.818 297.866 347.704 296.221 342.339C294.284 336.033 296.801 332.69 303.401 332.636H306.637Z"/>
<path fill="#2D2D2D" d="M296.546 154.54C295.748 153.412 295.801 152.129 295.514 150.926C295.446 150.722 295.332 150.537 295.179 150.387C295.026 150.236 294.84 150.124 294.636 150.059C294.024 149.979 294.071 150.591 294.045 151.022C294.011 151.554 294.011 152.087 294.045 152.619C294.162 154.391 294.045 156.589 296.286 156.914C298.909 157.286 299.479 154.833 299.857 153.018C300.32 151.263 300.248 149.409 299.649 147.696C297.989 143.581 293.853 142.559 290.298 145.796C287.105 148.723 283.55 151.283 280.718 154.668C274.864 161.64 270.074 169.128 268.876 178.335C268.267 183.696 268.411 189.115 269.302 194.435C270.297 200.955 271.708 207.384 274.587 213.393C274.78 213.982 275.024 214.554 275.316 215.101C275.848 215.825 276.051 217.379 277.312 216.772C278.44 216.24 277.381 215.085 277.094 214.484C273.022 206.032 271.772 197.054 272.495 187.846C273.602 173.955 278.078 161.342 287.823 150.99C289.037 149.702 289.995 148.196 291.549 147.19C292.826 146.365 294.008 145.189 295.615 145.891C297.403 146.674 297.808 148.483 297.792 150.192C297.869 151.739 297.431 153.268 296.546 154.54Z"/>
<path fill="#0067FF" d="M169.738 285.742C171.655 283.389 171.927 280.952 170.537 278.505C169.149 276.055 167.083 274.619 164.183 274.816C162.585 274.924 161.805 274.657 161.282 272.799C160.115 268.641 157.189 267.185 150.95 267.136C152.463 264.038 153.894 261.038 153.564 257.503C153.159 253.208 149.988 249.764 145.72 249.381C145.454 249.355 145.188 249.355 144.911 249.317C140.818 248.732 141.463 249.647 142.249 245.592C142.978 242.256 142.937 238.797 142.128 235.48C140.843 230.637 134.712 227.922 130.419 230.221C129.886 230.503 129.093 230.839 129.354 231.573C129.615 232.308 130.322 231.914 130.923 231.781C136.246 230.637 139.707 232.281 138.667 239.445C138.258 242.714 137.677 245.96 136.926 249.168C136.394 251.239 138.14 252.569 140.365 252.218C142.292 251.915 144.033 250.659 146.086 251.1C150.223 251.989 152.834 256.517 151.734 260.91C151.219 262.799 150.431 264.607 149.391 266.268C148.329 268.063 148.365 269.115 150.894 268.828C152.778 268.608 154.683 269.023 156.306 270.011C157.903 270.973 158.738 272.325 158.11 274.299C157.957 275 157.86 275.712 157.811 276.429C157.332 279.452 158.477 280.415 161.377 279.334C162.603 278.781 163.94 278.51 165.284 278.541C168.307 278.766 169.766 280.292 169.766 283.331L169.738 285.742Z"/>
<path fill="#0067FF" d="M195.392 87.5704C205.281 84.2122 214.915 81.0135 225.495 80.6994C222.94 86.0216 220.449 91.0351 218.107 96.1339C217.042 98.3905 216.346 100.796 215.414 103.106C215.025 104.08 215.019 104.985 215.995 105.416C216.968 105.847 217.446 105.011 217.851 104.282C222.057 96.7194 226.081 89.0552 229.56 81.1413C231.247 77.3253 228.997 75.1378 224.568 75.9414C217.661 77.2316 210.911 79.264 204.439 82.0035C202.14 82.956 199.88 84.01 197.642 85.1008C196.818 85.5002 195.753 85.7557 195.392 87.5704Z"/>
<path fill="#2D2D2D" d="M332.534 233.393C330.778 234.25 330.772 235.559 330.341 236.555C324.838 249.179 321.193 262.362 318.366 275.817C316.706 283.73 313.63 291.251 311.517 299.069C311.251 300.06 309.675 301.955 311.719 302.492C313.225 302.892 313.183 300.826 313.56 299.74C316.392 291.597 317.978 283.069 321.086 275.013C324.604 265.874 328.074 256.719 330.006 247.087C330.895 242.67 332.135 238.3 332.534 233.393Z"/>
<path fill="#0067FF" d="M146.104 174.839C145.73 173.407 146.327 171.715 144.432 171.427C142.538 171.14 141.977 172.492 141.201 173.727C136.911 180.433 132.835 187.266 129.039 194.265C128.722 194.851 128.14 195.383 128.555 197.001C132.812 190.289 136.389 183.775 141.376 178.288C143.352 180.725 143.846 180.688 145.937 178.16C148.961 174.509 151.841 170.736 155.299 167.298C156.014 170.986 157.647 171.944 160.297 169.927C165.667 165.839 170.798 161.438 173.401 154.913C173.713 154.13 174.763 152.975 173.401 152.326C172.293 151.794 171.98 153.215 171.532 153.816C168.547 157.856 164.577 160.826 160.76 163.966C160.399 164.264 159.966 165.339 159.329 164.429C157.731 162.14 156.631 163.716 155.522 164.865C152.489 168.09 149.419 171.353 146.104 174.839Z"/>
<path fill="#2D2D2D" d="M347 247.545C344.511 242.747 341.182 238.433 337.17 234.809L335.797 233.527C335.625 233.315 335.378 233.178 335.108 233.144C334.837 233.109 334.564 233.179 334.344 233.34C333.849 233.745 333.998 234.346 334.344 234.782C338.527 239.785 340.731 245.959 344.004 251.457C344.685 252.612 345.6 253.314 347.064 253.187C348.528 253.059 348.757 251.915 349.193 250.829C352.583 242.447 356.963 234.724 364.292 229.077C366.511 227.369 369.188 226.586 371.796 225.692C372.281 225.527 372.941 225.586 372.919 224.819C372.919 223.861 372.137 223.989 371.546 223.984C366.224 223.952 362.126 226.57 358.566 230.083C353.722 234.9 350.082 240.626 347 247.545Z"/>
<path fill="#0067FF" d="M189.872 122.335C195.51 122.335 199.549 117.545 199.393 111.036C199.293 106.534 195.248 103.585 191.583 103.447C186.365 103.287 181.197 108.524 181.186 113.751C181.176 118.737 184.822 122.341 189.872 122.335ZM186.992 112.266C186.992 108.455 189.788 105.347 193.103 105.443C194.759 105.485 196.211 107.907 196.216 110.621C196.216 114.23 193.828 117.008 190.751 116.965C188.073 116.955 186.987 115.566 186.992 112.266Z"/>
<path fill="#0067FF" d="M122.686 197.783C118.428 196.899 116.649 199.134 114.936 201.508C114.616 201.945 114.783 202.988 113.541 202.44C109.407 200.609 106.24 202.535 103.591 205.484C102.18 207.08 101.56 207.416 99.9963 205.447C95.1527 199.358 86.2926 199.326 80.9601 205.159C78.9428 207.442 77.4068 210.108 76.4468 212.999C76.1166 213.925 75.6737 215.234 76.8334 215.564C77.9956 215.894 77.9675 214.335 78.1441 213.643C78.8993 210.476 80.7656 207.685 83.4024 205.777C88.2996 202.243 94.8456 203.61 98.1224 208.725C98.811 209.865 99.4254 211.047 99.9655 212.264C100.109 212.645 100.365 212.973 100.7 213.201C101.038 213.43 101.438 213.549 101.845 213.542C102.211 213.53 102.561 213.394 102.838 213.154C103.114 212.915 103.301 212.588 103.365 212.227C103.898 209.508 105.984 208.076 107.943 206.527C109.796 205.063 111.529 204.27 113.569 206.452C114.872 207.847 116.762 207.261 116.623 205.59C116.25 201.402 118.759 199.512 122.686 197.783Z"/>
<path fill="#0067FF" d="M190.016 160.442C188.521 157.356 187.259 154.705 185.961 152.076C185.625 151.4 185.254 150.437 184.274 150.91C183.439 151.32 183.9 152.081 184.156 152.778C185.715 156.834 187.069 160.966 188.211 165.158C188.554 166.52 189.512 167.633 191.017 167.654C192.522 167.675 193.492 166.691 193.971 165.307C195.456 160.996 196.101 156.499 196.728 152.001C197.494 146.354 198.1 140.692 198.771 135.029C198.825 134.587 198.873 134.14 198.909 133.693C198.958 133.107 198.815 132.522 198.175 132.453C197.734 132.4 197.435 132.809 197.286 133.305C196.851 134.752 196.354 136.178 195.886 137.61C193.472 144.971 191.874 152.539 190.016 160.442Z"/>
<path fill="#0067FF" d="M144.459 153.236C147.566 147.259 151.483 142.421 154.944 137.296C153.879 136.593 153.534 137.343 153.091 137.886C148.77 143.166 145.296 149.031 141.532 154.699C140.782 155.827 140.334 157.057 142.006 158.047C143.214 158.765 141.927 159.372 141.622 159.878C137.79 166.142 133.957 172.406 130.494 178.883C128.517 182.488 127.015 186.335 126.029 190.326C125.789 191.348 125.34 193.099 126.428 193.477C127.79 193.956 128.172 192.168 128.556 191.204C132.014 182.588 135.836 174.173 140.547 166.142C142.347 163.027 144.456 160.099 146.837 157.403C147.774 156.338 149.297 155.487 148.468 153.795C147.743 152.326 146.225 152.89 144.459 153.236Z"/>
<path fill="#2D2D2D" d="M253.305 419.256C256.891 416.924 259.068 413.486 261.409 410.276C269.222 399.575 276.908 388.78 284.609 377.997C285.434 376.842 286.046 375.534 286.786 374.321C287.094 373.814 287.318 373.256 286.828 372.867C286.259 372.436 285.875 373.069 285.498 373.399C283.257 375.373 281.581 377.833 279.803 380.201C270.941 392.015 262.048 403.809 254.001 416.218C253.443 417.057 252.616 417.851 253.305 419.256Z"/>
<path fill="#2D2D2D" d="M73.4923 254.832C73.4923 260.91 77.532 266.898 82.4804 268.372C85.7112 269.33 88.3787 267.51 88.6168 264.113C88.8677 260.436 87.2549 257.364 85.2171 254.502C84.6257 253.671 83.891 252.969 83.3432 252.043C81.9173 249.626 78.7941 248.152 76.7486 248.945C74.0197 250.01 73.2517 252.304 73.4923 254.832ZM85.4296 260.49C85.3707 262.198 85.7265 263.56 84.6309 264.294C83.5352 265.029 82.757 263.974 82.0939 263.363C79.2293 260.703 77.7982 257.275 77.3016 253.48C77.0737 251.633 78.2437 251.111 80.1176 251.968C84.0472 253.735 84.9995 257.242 85.4296 260.49Z"/>
<path fill="#0067FF" d="M127.672 228.886C131.397 226.022 133.299 222.137 134.026 217.613C134.223 216.394 133.872 214.979 132.812 214.553C130.588 213.648 131.968 212.706 132.59 211.833C135.613 207.576 138.626 203.35 139.077 197.926C139.238 196 138.892 194.132 137.152 192.934C135.915 192.093 134.569 191.689 133.127 192.615C132.531 193.003 131.676 193.227 132.062 194.164C132.421 194.989 133.043 194.504 133.66 194.361C135.89 193.828 136.852 194.824 136.768 197.059C136.67 198.767 136.036 200.4 134.953 201.726C132.229 205.404 129.423 209.029 126.656 212.68C126.123 213.393 125.591 214.111 125.092 214.872C124.485 215.841 124.229 216.905 125.132 217.805C125.877 218.545 126.73 218.656 127.838 218.215C129.034 217.741 130.547 216.261 131.489 217.182C132.733 218.406 131.489 220.232 131.069 221.727C130.329 224.271 128.386 226.251 127.672 228.886Z"/>
<path fill="#0067FF" d="M140.994 121.308C147.003 118.514 152.824 115.842 158.615 113.101C161.121 111.914 163.571 110.594 166.034 109.317C166.566 109.029 167.26 108.609 166.886 107.901C166.594 107.369 165.821 107.609 165.407 107.821C156.098 112.34 146.081 115.102 136.668 119.418C135.539 119.951 134.564 120.643 134.633 121.978C134.707 123.394 135.741 124.171 137.019 124.57C139.965 125.502 143.058 125.055 146.066 125.47C148.05 125.741 150.09 126.534 152.793 125.778C149.079 123.128 144.473 124.161 140.994 121.308Z"/>
<path fill="#0067FF" d="M128.295 264.817C132.703 263.293 134.963 257.057 132.467 253.639C131.525 252.346 130.34 251.335 128.645 251.579C126.357 251.92 125.883 250.978 125.75 248.823C125.64 246.944 125.522 244.937 124.442 243.149C123.922 242.202 123.141 241.425 122.192 240.911C121.242 240.397 120.164 240.166 119.089 240.249C117.824 240.267 116.585 240.581 115.467 241.168C114.348 241.754 113.383 242.595 112.648 243.623C112.502 243.798 112.42 244.016 112.412 244.243C112.405 244.471 112.471 244.694 112.604 244.879C113.019 245.411 113.541 245.209 114.038 244.879C115.139 244.128 116.165 243.282 117.476 242.83C119.179 242.244 120.668 242.26 121.936 243.543C122.558 244.136 122.988 244.901 123.172 245.74C123.356 246.579 123.287 247.454 122.972 248.253C122.542 249.515 122.084 250.765 121.659 252.027C121.232 253.288 120.738 254.422 121.808 255.55C123.052 256.865 124.416 256.338 125.773 255.779C127.13 255.22 128.402 254.815 129.498 255.986C130.594 257.157 131.239 258.647 130.46 260.408C130.199 261.161 129.841 261.878 129.398 262.538C128.891 263.15 128.121 263.767 128.295 264.817Z"/>
<path fill="#2D2D2D" d="M350.268 172.838C347.825 174.967 348.953 179.698 344.413 179.624C341.678 179.586 340.975 176.909 339.171 174.919C341.544 174.88 343.896 174.472 346.143 173.711C347.17 173.381 348.115 172.837 348.916 172.114C349.576 171.475 350.332 170.634 349.741 169.809C348.996 168.745 348.277 169.751 347.532 170.225C344.509 172.125 341.119 172.354 337.702 172.029C335.728 171.832 335.041 172.534 335.169 174.392C335.366 177.718 336.691 180.502 339.426 182.375C343.589 185.276 349.539 182.029 350.289 176.521C350.365 175.294 350.357 174.064 350.268 172.838Z"/>
<path fill="#0067FF" d="M107.933 187.937C108.596 187.744 109.213 187.416 109.745 186.973C110.275 186.531 110.708 185.983 111.017 185.364C111.327 184.746 111.504 184.07 111.537 183.379C111.57 182.689 111.463 181.999 111.217 181.353C110.487 179.192 107.282 177.718 104.899 178.852C103.302 179.613 102.482 179.283 101.264 178.202C98.4811 175.733 93.5249 175.733 91.1518 177.963C90.1509 178.889 89.4392 179.921 89.6363 181.459C95.596 178.213 95.5806 178.224 100.05 183.977C101.215 185.478 102.631 185.627 103.839 184.051C105.047 182.476 106.246 180.565 108.242 181.827C110.605 183.322 109.174 185.398 108.045 187.149C107.938 187.282 107.976 187.49 107.933 187.937Z"/>
<path fill="#0067FF" d="M162.683 149.265C160.435 151.091 158.165 152.895 155.945 154.758C155.103 155.461 154.517 156.2 153.283 155.168C152.138 154.226 150.889 154.827 149.973 155.886C146.509 159.915 144.118 164.652 141.33 169.117C141.089 169.506 140.936 170.006 141.384 170.326C142.052 170.81 142.554 170.326 142.979 169.857C145.237 167.302 147.477 164.732 149.74 162.182C150.549 161.272 151.201 160.181 152.825 160.671C153.959 161.006 154.852 160.139 155.641 159.399C158.625 156.568 160.228 152.661 163.39 149.957L162.683 149.265Z"/>
<path fill="#0067FF" d="M127.519 195.419C125.808 196.266 125.458 198.006 124.613 199.432C119.227 208.48 115.814 218.294 113.339 228.465C113.147 229.253 112.589 230.163 113.738 230.466C114.552 230.674 114.882 229.828 115.118 229.114C118 220.429 122.724 212.429 124.585 203.344C125.143 200.614 126.518 198.054 127.519 195.419Z"/>
<path fill="#0067FF" d="M212.449 108.811C212.572 108.846 212.698 108.853 212.823 108.831C212.949 108.809 213.066 108.76 213.169 108.686C213.271 108.612 213.356 108.516 213.414 108.405C213.473 108.294 213.509 108.171 213.514 108.045C213.609 107.691 213.578 107.316 213.43 106.982C213.281 106.647 213.02 106.374 212.695 106.209C206.011 102.483 201.774 96.1603 196.541 90.8913C196.111 90.4602 195.702 89.7257 195.008 90.0557C194.317 90.3857 194.609 91.0935 194.849 91.6951C197.573 98.4914 202.204 103.691 208.287 107.662C209.495 108.523 210.97 108.93 212.449 108.811Z"/>
<path fill="#2D2D2D" d="M336.686 157.467C341.476 157.573 344.281 155.428 345.25 151.165C345.41 150.463 345.718 149.606 344.904 149.244C343.84 148.776 343.914 149.915 343.643 150.447C341.849 153.906 340.423 154.513 336.192 153.544C331.87 152.555 329.922 154.545 330.976 158.866C331.928 162.763 334.552 165.434 337.629 165.588C338.273 165.62 339.225 166.041 339.406 165.056C339.518 164.386 338.704 164.173 338.092 163.992C336.176 163.39 334.941 162.284 334.505 160.138C334.073 157.845 334.185 156.567 336.686 157.467Z"/>
<path fill="#2D2D2D" d="M374.096 274.184C372.537 272.018 374.522 272.156 375.804 271.782C377.087 271.411 378.503 271.086 378.306 269.499C378.093 267.807 376.592 267.638 375.171 267.776C373.851 267.909 372.994 267.668 372.744 266.109C372.611 265.28 371.983 264.512 371.461 263.782C371.041 263.209 370.44 262.72 369.62 263.002C368.8 263.283 368.614 263.954 368.683 264.737C368.859 266.76 368.853 268.605 366.171 269.048C365.405 269.174 365.266 270.111 365.41 270.861C365.554 271.613 366.011 272.146 366.677 272.023C369.242 271.56 370.014 273.085 370.573 275.141C370.823 276.078 371.451 277.084 372.664 276.739C373.723 276.403 373.968 275.348 374.096 274.184Z"/>
<path fill="#2D2D2D" d="M377.343 230.62C377.343 230.86 377.343 230.998 377.38 231.03C379.95 232.85 379.094 234.974 378.061 237.22C377.79 237.805 378.263 238.689 378.934 238.982C379.303 239.17 379.727 239.22 380.129 239.122C380.532 239.025 380.885 238.786 381.127 238.449C382.409 236.586 383.74 236.89 385.331 238.055C386.3 238.763 387.636 239.093 388.439 237.922C389.174 236.858 388.668 235.554 387.721 234.804C386.204 233.595 385.624 232.403 386.779 230.615C387.37 229.689 386.72 228.901 386.002 228.337C384.937 227.496 383.846 228.034 383.154 228.827C382.09 230.035 381.265 230.631 379.658 229.567C378.753 228.981 377.529 229.21 377.343 230.62Z"/>
<path fill="#2D2D2D" d="M367.629 308.209C367.781 308.754 368.012 309.276 368.316 309.755C369.529 311.263 369.912 312.62 368.188 314.074C367.709 314.483 367.272 315.264 367.964 315.983C368.2 316.268 368.537 316.447 368.904 316.485C369.271 316.524 369.638 316.419 369.928 316.191C371.551 314.78 372.616 315.579 373.739 316.846C374.051 317.245 374.5 317.514 374.999 317.604C375.498 317.691 376.012 317.591 376.443 317.325C377.507 316.639 377.081 315.456 376.549 314.662C375.426 313.068 375.878 311.964 377.284 310.83C378.316 309.996 378.933 308.826 377.933 307.525C376.82 306.079 375.399 306.504 374.399 307.451C373.047 308.718 372.11 308.516 370.945 307.318C370.621 307 370.214 306.783 369.771 306.688C369.328 306.593 368.868 306.629 368.443 306.785C367.868 306.957 367.608 307.43 367.629 308.209Z"/>
<path fill="#2D2D2D" d="M344.829 295.828C344.669 295.148 344.909 294.29 346.095 293.699C347.16 293.166 347.612 292.006 346.947 290.975C346.696 290.542 346.295 290.22 345.82 290.068C345.345 289.915 344.831 289.946 344.376 290.15C342.929 290.831 341.939 290.606 341.092 289.16C340.417 288 339.24 287.265 337.899 288C336.435 288.809 336.941 290.284 337.543 291.295C338.442 292.81 338.304 293.875 336.936 294.922C336.345 295.375 335.989 296.026 336.403 296.801C336.899 297.702 337.803 297.679 338.532 297.446C339.671 297.078 340.661 296.604 341.619 297.841C342.2 298.575 342.982 299.469 344.11 298.947C345.239 298.424 344.988 297.285 344.829 295.828Z"/>
<path fill="#2D2D2D" d="M304.422 145.225C306.642 144.789 308.542 144.895 309.255 147.615C309.968 150.335 309.016 153.321 306.988 154.257C306.572 154.449 306.035 154.491 306.094 155.04C306.152 155.588 306.732 155.79 307.296 155.875C308.76 156.104 309.611 155.412 310.32 154.193C311.176 152.714 311.235 151 311.799 149.169C313.571 150.457 314.487 151.793 313.88 153.816C313.31 155.726 311.98 156.477 310.037 156.423C309.25 156.423 307.909 155.891 307.866 157.174C307.866 158.206 309.01 158.531 310.122 158.584C312.523 158.696 314.407 157.834 315.418 155.673C316.483 153.406 316.664 151.096 315.253 148.754C313.587 145.981 311.192 145.396 309.436 143.789C308.297 142.724 306.945 142.671 305.418 143.256C304.252 143.719 304.146 144.321 304.502 145.295L304.422 145.225Z"/>
<path fill="#0067FF" d="M159.782 237.491C161.515 237.103 162.867 237.933 163.804 239.578C164.795 241.307 164.426 242.83 163.064 244.192C162.767 244.49 162.245 244.825 162.619 245.256C163.069 245.789 163.538 245.411 163.996 245.081C167.386 242.617 166.167 236.214 161.825 234.165C161.28 233.975 160.801 233.63 160.448 233.174C160.095 232.718 159.88 232.17 159.828 231.595C159.117 227.8 154.603 226.118 151.378 228.188C150.845 228.518 150.136 228.827 150.413 229.588C150.733 230.471 151.511 229.998 152.01 229.822C152.868 229.529 153.725 229.141 154.614 229.396C156.529 229.929 156.971 231.169 156.459 233.122C155.566 236.603 156.406 237.656 159.782 237.491Z"/>
<path fill="#2D2D2D" d="M304.497 208.837C303.103 209.247 301.415 209.689 300.612 207.293C300.367 206.57 299.42 206.484 298.722 206.841C298.381 206.988 298.109 207.258 297.961 207.599C297.812 207.939 297.799 208.323 297.924 208.672C298.786 210.455 297.786 211.472 296.657 212.541C296.21 212.967 295.694 213.473 295.933 214.138C296.173 214.803 296.923 214.888 297.53 214.755C299.398 214.351 300.037 215.639 300.75 216.921C301.176 217.693 301.634 218.582 302.773 218.247C303.911 217.911 304.023 216.868 303.752 216.049C303.023 213.84 304.721 213.435 306.003 212.637C306.945 212.052 307.829 211.291 307.499 210.04C307.142 208.704 305.923 208.837 304.497 208.837Z"/>
<path fill="#2D2D2D" d="M412.214 241.739C412.001 241.717 411.786 241.738 411.581 241.8C411.377 241.862 411.186 241.963 411.02 242.098C410.855 242.234 410.717 242.401 410.616 242.589C410.515 242.778 410.452 242.984 410.431 243.197C410.287 244.921 409.366 245.203 407.892 245.124C406.7 245.06 405.3 245.241 405.109 246.63C404.917 248.019 406.205 248.226 407.307 248.445C408.616 248.7 409.558 249.232 409.393 250.898C409.324 251.585 409.531 252.553 410.638 252.67C410.841 252.697 411.047 252.681 411.243 252.624C411.44 252.567 411.622 252.469 411.778 252.337C411.934 252.206 412.061 252.043 412.151 251.859C412.241 251.675 412.291 251.475 412.299 251.271C412.586 249.184 414.135 250.041 415.205 249.956C416.275 249.871 417.291 249.956 417.557 248.732C417.839 247.391 416.833 246.672 415.79 246.475C413.912 246.119 413.246 245.166 413.507 243.325C413.55 243.132 413.548 242.933 413.503 242.742C413.457 242.55 413.369 242.371 413.245 242.218C413.12 242.066 412.963 241.943 412.784 241.86C412.606 241.777 412.411 241.736 412.214 241.739Z"/>
<path fill="#2D2D2D" d="M338.485 252.745C338.442 251.824 339.373 251.532 339.81 250.898C340.512 249.887 341.518 248.897 340.406 247.599C339.4 246.428 338.277 246.923 337.319 247.646C336.361 248.37 335.871 248.11 335.19 247.253C335.043 247.05 334.857 246.879 334.643 246.749C334.429 246.62 334.191 246.533 333.944 246.496C333.696 246.458 333.444 246.47 333.201 246.53C332.958 246.591 332.73 246.699 332.529 246.848C331.529 247.524 331.731 248.599 332.204 249.509C332.88 250.781 333.269 251.878 331.991 253.07C331.861 253.196 331.757 253.348 331.687 253.515C331.616 253.682 331.579 253.862 331.579 254.044C331.579 254.225 331.616 254.405 331.687 254.573C331.757 254.74 331.861 254.891 331.991 255.018C332.212 255.25 332.515 255.386 332.835 255.396C333.155 255.406 333.466 255.289 333.7 255.071C334.897 254.044 335.552 254.794 336.276 255.667C337 256.54 337.745 257.587 338.937 256.847C340.273 256.008 339.405 254.81 338.969 253.772C338.825 253.432 338.66 253.118 338.485 252.745Z"/>
<path fill="#2D2D2D" d="M296.801 261.926C297.488 263.268 297.121 264.507 295.535 265.439C295.389 265.503 295.258 265.595 295.149 265.71C295.041 265.828 294.957 265.964 294.904 266.115C294.85 266.263 294.828 266.422 294.839 266.58C294.849 266.739 294.892 266.895 294.965 267.036C295.035 267.205 295.141 267.356 295.275 267.482C295.408 267.607 295.567 267.702 295.74 267.761C295.913 267.82 296.097 267.84 296.279 267.822C296.461 267.807 296.638 267.75 296.796 267.658C298.095 266.967 298.792 267.494 299.399 268.552C299.578 268.923 299.889 269.212 300.27 269.368C300.652 269.522 301.077 269.53 301.464 269.389C302.448 269.112 302.576 268.408 302.305 267.5C301.938 266.291 302.922 266.296 303.667 266.007C305.078 265.477 306.472 264.609 305.855 262.863C305.285 261.266 303.88 260.995 302.299 261.704C301.086 262.234 300.57 261.373 300.059 260.472C299.855 260.063 299.502 259.748 299.071 259.592C298.641 259.436 298.167 259.453 297.749 259.638C296.77 259.973 296.722 260.787 296.801 261.926Z"/>
<path fill="#0067FF" d="M73.0085 215.256C74.1426 212.738 73.2313 211.418 71.9692 210.157C70.4485 208.645 68.5797 208.491 66.7161 209.023C62.6073 210.2 59.9525 214.537 60.5285 218.816C60.6488 219.707 61.0482 220.538 61.6652 221.19C61.893 221.472 62.2053 221.673 62.556 221.763C62.9093 221.853 63.278 221.828 63.6133 221.69C64.3762 221.419 64.3173 220.716 64.284 220.093C64.2533 219.555 64.1714 219.02 64.0409 218.497C63.3804 215.665 64.5733 213.34 67.3407 211.956C69.9365 210.657 71.0655 212.642 72.3788 214.164C72.6143 214.513 72.8242 214.878 73.0085 215.256Z"/>
<path fill="#2D2D2D" d="M305.109 166.658C306.999 166.302 309.367 165.828 310.708 163.422C311.129 162.672 311.895 161.868 310.868 161.054C309.841 160.24 309.447 161.363 308.925 161.836C307.329 163.289 305.562 164.21 303.348 163.939C303.004 163.907 302.686 163.745 302.459 163.486C302.134 162.954 302.629 162.614 302.991 162.422C304.024 161.89 305.12 161.512 306.184 161.017C306.844 160.703 307.51 160.261 307.212 159.377C306.913 158.494 306.147 158.585 305.402 158.76C304.694 158.87 303.996 159.039 303.316 159.266C301.384 160.107 299.452 161.07 299.553 163.609C299.585 165.386 301.889 166.68 305.109 166.658Z"/>
<path fill="#2D2D2D" d="M304.503 145.311C303.438 143.783 302.177 142.58 300.08 142.884C299.324 142.99 298.584 143.171 298.483 144.023C298.345 145.146 299.266 144.933 299.952 145.05C302.054 145.412 303.678 148.775 303.199 151.788C303.023 152.852 302.746 153.88 302.512 154.939C301.645 155.263 301.096 153.395 300.245 154.438C299.627 155.194 300.484 155.918 300.969 156.525C301.73 157.483 302.698 157.871 303.79 157.121C304.27 156.787 304.665 156.344 304.942 155.829C305.219 155.314 305.371 154.741 305.386 154.156C305.53 151.133 305.775 148.078 304.412 145.22L304.503 145.311Z"/>
<path fill="#2D2D2D" d="M367.65 156.934C367.539 153.874 366.378 151.676 364.09 150.122C363.244 149.553 362.105 149.313 361.402 150.122C360.614 151.043 361.317 152.001 362.062 152.687C363.744 154.231 364.398 156.168 364.532 158.393C364.585 159.266 364.313 160.591 365.766 160.633C366.953 160.676 366.99 159.537 367.23 158.712C367.422 158.052 367.549 157.36 367.65 156.934Z"/>
<path fill="#2D2D2D" d="M357.321 161.07C357.308 160.294 357.094 159.535 356.7 158.866C356.307 158.197 355.747 157.641 355.075 157.253C354.403 156.865 353.642 156.656 352.866 156.649C352.091 156.642 351.326 156.836 350.647 157.211C349.912 157.616 349.513 158.196 349.683 158.914C349.965 160.064 350.918 159.643 351.669 159.494C354.207 158.994 355.219 159.777 355.144 162.188C355.144 163.066 354.378 164.418 355.996 164.396C357.129 164.396 357.294 163.151 357.321 162.14C357.326 161.783 357.321 161.426 357.321 161.07Z"/>
<path fill="#0067FF" d="M174.443 274.312C173.156 274.189 172.533 274.45 172.239 275.236C172.185 275.387 172.165 275.546 172.178 275.707C172.193 275.866 172.242 276.019 172.321 276.157C172.4 276.296 172.508 276.416 172.638 276.506C172.769 276.598 172.917 276.662 173.076 276.69C175.439 277.292 175.646 278.564 174.443 280.415C174.21 280.778 173.911 281.203 174.31 281.603C174.512 281.789 174.779 281.892 175.053 281.892C175.329 281.892 175.593 281.789 175.795 281.603C177.024 280.494 177.881 279.217 177.467 277.396C177.333 276.639 176.973 275.935 176.435 275.384C175.895 274.834 175.201 274.46 174.443 274.312Z"/>
<path fill="#2D2D2D" d="M320.555 240.648C320.587 242.154 321.481 243.245 322.923 243.309C324.365 243.373 325.318 242.085 325.35 240.648C325.357 240.332 325.3 240.018 325.182 239.725C325.063 239.431 324.887 239.165 324.662 238.943C324.437 238.721 324.169 238.547 323.875 238.432C323.58 238.317 323.266 238.263 322.95 238.274C321.614 238.221 320.672 239.073 320.555 240.648Z"/>
<path fill="#2D2D2D" d="M317.878 264.453C317.954 264.164 317.961 263.859 317.898 263.565C317.835 263.273 317.704 262.999 317.515 262.764C317.327 262.531 317.086 262.344 316.813 262.221C316.539 262.098 316.24 262.042 315.94 262.054C314.594 261.996 313.631 262.963 313.567 264.412C313.513 265.725 314.099 266.598 315.584 266.683C317.234 266.78 317.697 265.759 317.878 264.453Z"/>
<path fill="#2D2D2D" d="M310.293 290.186C310.293 288.85 309.654 287.828 308.318 287.867C306.983 287.903 305.897 288.553 305.828 290.112C305.795 290.404 305.825 290.698 305.915 290.977C306.004 291.256 306.152 291.512 306.349 291.73C306.545 291.945 306.785 292.119 307.053 292.237C307.321 292.355 307.611 292.413 307.903 292.411C309.207 292.48 310.277 291.773 310.293 290.186Z"/>
<path fill="#2D2D2D" d="M419.51 187.766C418.361 187.857 418.531 188.708 418.35 189.363C416.753 195.271 415.55 201.311 412.496 206.735C410.899 209.545 409.079 212.195 407.232 214.84C406.902 215.309 406.21 215.766 406.88 216.437C407.636 217.209 408.206 216.527 408.717 216.091C410.862 214.176 412.629 211.876 413.927 209.31C416.79 204.052 419.441 198.725 420.899 192.854C421.309 191.199 420.34 189.901 420.452 188.389C420.468 187.937 419.883 187.772 419.51 187.766Z"/>
<path fill="#2D2D2D" d="M410.441 178.905C408.313 178.149 407.844 179.011 408.344 180.959C409.271 184.557 413.374 186.723 416.791 185.329C418.691 184.552 420.032 183.04 419.809 181.012C419.521 178.41 417.312 177.122 415.019 177.09C413.48 177.09 410.543 175.179 410.34 178.99C411.719 180.31 413.635 179.16 415.168 180.055C415.843 180.454 416.887 180.486 416.679 181.518C416.471 182.551 415.455 182.412 414.673 182.37C412.443 182.258 410.814 181.353 410.441 178.905Z"/>
</svg>